<svg width="568" height="1009" viewBox="0 0 568 1009" fill="none" xmlns="http://www.w3.org/2000/svg">
<g opacity="0.15332">
<path fill-rule="evenodd" clip-rule="evenodd" d="M53.7671 0.00491333C49.7341 0.00491333 46.4651 3.27391 46.4651 7.30691C46.4651 11.3389 49.7341 14.6089 53.7671 14.6089C57.8001 14.6089 61.0691 11.3389 61.0691 7.30691C61.0691 3.27391 57.8001 0.00491333 53.7671 0.00491333Z" fill="black" fill-opacity="0.42"/>
<path fill-rule="evenodd" clip-rule="evenodd" d="M53.7671 63.3711C49.7341 63.3711 46.4651 66.6401 46.4651 70.6731C46.4651 74.7051 49.7341 77.9751 53.7671 77.9751C57.8001 77.9751 61.0691 74.7051 61.0691 70.6731C61.0691 66.6401 57.8001 63.3711 53.7671 63.3711Z" fill="black" fill-opacity="0.42"/>
<path fill-rule="evenodd" clip-rule="evenodd" d="M53.7671 126.737C49.7341 126.737 46.4651 130.006 46.4651 134.039C46.4651 138.072 49.7341 141.341 53.7671 141.341C57.8001 141.341 61.0691 138.072 61.0691 134.039C61.0691 130.006 57.8001 126.737 53.7671 126.737Z" fill="black" fill-opacity="0.42"/>
<path fill-rule="evenodd" clip-rule="evenodd" d="M53.7671 190.104C49.7341 190.104 46.4651 193.374 46.4651 197.406C46.4651 201.439 49.7341 204.708 53.7671 204.708C57.8001 204.708 61.0691 201.439 61.0691 197.406C61.0691 193.374 57.8001 190.104 53.7671 190.104Z" fill="black" fill-opacity="0.42"/>
<path fill-rule="evenodd" clip-rule="evenodd" d="M53.7671 253.47C49.7341 253.47 46.4651 256.739 46.4651 260.772C46.4651 264.804 49.7341 268.074 53.7671 268.074C57.8001 268.074 61.0691 264.804 61.0691 260.772C61.0691 256.739 57.8001 253.47 53.7671 253.47Z" fill="black" fill-opacity="0.42"/>
<path fill-rule="evenodd" clip-rule="evenodd" d="M53.7671 316.836C49.7341 316.836 46.4651 320.106 46.4651 324.138C46.4651 328.171 49.7341 331.44 53.7671 331.44C57.8001 331.44 61.0691 328.171 61.0691 324.138C61.0691 320.106 57.8001 316.836 53.7671 316.836Z" fill="black" fill-opacity="0.42"/>
<path fill-rule="evenodd" clip-rule="evenodd" d="M53.7671 380.203C49.7341 380.203 46.4651 383.473 46.4651 387.505C46.4651 391.538 49.7341 394.807 53.7671 394.807C57.8001 394.807 61.0691 391.538 61.0691 387.505C61.0691 383.473 57.8001 380.203 53.7671 380.203Z" fill="black" fill-opacity="0.42"/>
<path fill-rule="evenodd" clip-rule="evenodd" d="M53.7671 443.569C49.7341 443.569 46.4651 446.839 46.4651 450.871C46.4651 454.904 49.7341 458.173 53.7671 458.173C57.8001 458.173 61.0691 454.904 61.0691 450.871C61.0691 446.839 57.8001 443.569 53.7671 443.569Z" fill="black" fill-opacity="0.42"/>
<path fill-rule="evenodd" clip-rule="evenodd" d="M53.7671 506.935C49.7341 506.935 46.4651 510.205 46.4651 514.238C46.4651 518.27 49.7341 521.539 53.7671 521.539C57.8001 521.539 61.0691 518.27 61.0691 514.238C61.0691 510.205 57.8001 506.935 53.7671 506.935Z" fill="black" fill-opacity="0.42"/>
<path fill-rule="evenodd" clip-rule="evenodd" d="M53.7671 570.301C49.7341 570.301 46.4651 573.571 46.4651 577.604C46.4651 581.636 49.7341 584.905 53.7671 584.905C57.8001 584.905 61.0691 581.636 61.0691 577.604C61.0691 573.571 57.8001 570.301 53.7671 570.301Z" fill="black" fill-opacity="0.42"/>
<path fill-rule="evenodd" clip-rule="evenodd" d="M53.7671 633.669C49.7341 633.669 46.4651 636.938 46.4651 640.971C46.4651 645.003 49.7341 648.273 53.7671 648.273C57.8001 648.273 61.0691 645.003 61.0691 640.971C61.0691 636.938 57.8001 633.669 53.7671 633.669Z" fill="black" fill-opacity="0.42"/>
<path fill-rule="evenodd" clip-rule="evenodd" d="M53.7671 697.035C49.7341 697.035 46.4651 700.304 46.4651 704.337C46.4651 708.369 49.7341 711.639 53.7671 711.639C57.8001 711.639 61.0691 708.369 61.0691 704.337C61.0691 700.304 57.8001 697.035 53.7671 697.035Z" fill="black" fill-opacity="0.42"/>
<path fill-rule="evenodd" clip-rule="evenodd" d="M53.7671 760.401C49.7341 760.401 46.4651 763.67 46.4651 767.703C46.4651 771.736 49.7341 775.005 53.7671 775.005C57.8001 775.005 61.0691 771.736 61.0691 767.703C61.0691 763.67 57.8001 760.401 53.7671 760.401Z" fill="black" fill-opacity="0.42"/>
<path fill-rule="evenodd" clip-rule="evenodd" d="M53.7671 823.767C49.7341 823.767 46.4651 827.037 46.4651 831.069C46.4651 835.102 49.7341 838.371 53.7671 838.371C57.8001 838.371 61.0691 835.102 61.0691 831.069C61.0691 827.037 57.8001 823.767 53.7671 823.767Z" fill="black" fill-opacity="0.42"/>
<path fill-rule="evenodd" clip-rule="evenodd" d="M53.7671 887.133C49.7341 887.133 46.4651 890.403 46.4651 894.435C46.4651 898.468 49.7341 901.737 53.7671 901.737C57.8001 901.737 61.0691 898.468 61.0691 894.435C61.0691 890.403 57.8001 887.133 53.7671 887.133Z" fill="black" fill-opacity="0.42"/>
<path fill-rule="evenodd" clip-rule="evenodd" d="M53.7671 940.5C49.7341 940.5 46.4651 943.77 46.4651 947.802C46.4651 951.835 49.7341 955.104 53.7671 955.104C57.8001 955.104 61.0691 951.835 61.0691 947.802C61.0691 943.77 57.8001 940.5 53.7671 940.5Z" fill="black" fill-opacity="0.42"/>
<path fill-rule="evenodd" clip-rule="evenodd" d="M53.7671 993.866C49.7341 993.866 46.4651 997.136 46.4651 1001.17C46.4651 1005.2 49.7341 1008.47 53.7671 1008.47C57.8001 1008.47 61.0691 1005.2 61.0691 1001.17C61.0691 997.136 57.8001 993.866 53.7671 993.866Z" fill="black" fill-opacity="0.42"/>
<path fill-rule="evenodd" clip-rule="evenodd" d="M117.134 0.00491333C113.101 0.00491333 109.832 3.27391 109.832 7.30691C109.832 11.3389 113.101 14.6089 117.134 14.6089C121.167 14.6089 124.436 11.3389 124.436 7.30691C124.436 3.27391 121.167 0.00491333 117.134 0.00491333Z" fill="black" fill-opacity="0.42"/>
<path fill-rule="evenodd" clip-rule="evenodd" d="M117.134 63.3711C113.101 63.3711 109.832 66.6401 109.832 70.6731C109.832 74.7051 113.101 77.9751 117.134 77.9751C121.167 77.9751 124.436 74.7051 124.436 70.6731C124.436 66.6401 121.167 63.3711 117.134 63.3711Z" fill="black" fill-opacity="0.42"/>
<path fill-rule="evenodd" clip-rule="evenodd" d="M117.134 126.737C113.101 126.737 109.832 130.006 109.832 134.039C109.832 138.072 113.101 141.341 117.134 141.341C121.167 141.341 124.436 138.072 124.436 134.039C124.436 130.006 121.167 126.737 117.134 126.737Z" fill="black" fill-opacity="0.42"/>
<path fill-rule="evenodd" clip-rule="evenodd" d="M117.134 190.104C113.101 190.104 109.832 193.374 109.832 197.406C109.832 201.439 113.101 204.708 117.134 204.708C121.167 204.708 124.436 201.439 124.436 197.406C124.436 193.374 121.167 190.104 117.134 190.104Z" fill="black" fill-opacity="0.42"/>
<path fill-rule="evenodd" clip-rule="evenodd" d="M117.134 253.47C113.101 253.47 109.832 256.739 109.832 260.772C109.832 264.804 113.101 268.074 117.134 268.074C121.167 268.074 124.436 264.804 124.436 260.772C124.436 256.739 121.167 253.47 117.134 253.47Z" fill="black" fill-opacity="0.42"/>
<path fill-rule="evenodd" clip-rule="evenodd" d="M117.134 316.836C113.101 316.836 109.832 320.106 109.832 324.138C109.832 328.171 113.101 331.44 117.134 331.44C121.167 331.44 124.436 328.171 124.436 324.138C124.436 320.106 121.167 316.836 117.134 316.836Z" fill="black" fill-opacity="0.42"/>
<path fill-rule="evenodd" clip-rule="evenodd" d="M117.134 380.203C113.101 380.203 109.832 383.473 109.832 387.505C109.832 391.538 113.101 394.807 117.134 394.807C121.167 394.807 124.436 391.538 124.436 387.505C124.436 383.473 121.167 380.203 117.134 380.203Z" fill="black" fill-opacity="0.42"/>
<path fill-rule="evenodd" clip-rule="evenodd" d="M117.134 443.569C113.101 443.569 109.832 446.839 109.832 450.871C109.832 454.904 113.101 458.173 117.134 458.173C121.167 458.173 124.436 454.904 124.436 450.871C124.436 446.839 121.167 443.569 117.134 443.569Z" fill="black" fill-opacity="0.42"/>
<path fill-rule="evenodd" clip-rule="evenodd" d="M117.134 506.935C113.101 506.935 109.832 510.205 109.832 514.238C109.832 518.27 113.101 521.539 117.134 521.539C121.167 521.539 124.436 518.27 124.436 514.238C124.436 510.205 121.167 506.935 117.134 506.935Z" fill="black" fill-opacity="0.42"/>
<path fill-rule="evenodd" clip-rule="evenodd" d="M117.134 570.301C113.101 570.301 109.832 573.571 109.832 577.604C109.832 581.636 113.101 584.905 117.134 584.905C121.167 584.905 124.436 581.636 124.436 577.604C124.436 573.571 121.167 570.301 117.134 570.301Z" fill="black" fill-opacity="0.42"/>
<path fill-rule="evenodd" clip-rule="evenodd" d="M117.134 633.669C113.101 633.669 109.832 636.938 109.832 640.971C109.832 645.003 113.101 648.273 117.134 648.273C121.167 648.273 124.436 645.003 124.436 640.971C124.436 636.938 121.167 633.669 117.134 633.669Z" fill="black" fill-opacity="0.42"/>
<path fill-rule="evenodd" clip-rule="evenodd" d="M117.134 697.035C113.101 697.035 109.832 700.304 109.832 704.337C109.832 708.369 113.101 711.639 117.134 711.639C121.167 711.639 124.436 708.369 124.436 704.337C124.436 700.304 121.167 697.035 117.134 697.035Z" fill="black" fill-opacity="0.42"/>
<path fill-rule="evenodd" clip-rule="evenodd" d="M117.134 760.401C113.101 760.401 109.832 763.67 109.832 767.703C109.832 771.736 113.101 775.005 117.134 775.005C121.167 775.005 124.436 771.736 124.436 767.703C124.436 763.67 121.167 760.401 117.134 760.401Z" fill="black" fill-opacity="0.42"/>
<path fill-rule="evenodd" clip-rule="evenodd" d="M117.134 823.767C113.101 823.767 109.832 827.037 109.832 831.069C109.832 835.102 113.101 838.371 117.134 838.371C121.167 838.371 124.436 835.102 124.436 831.069C124.436 827.037 121.167 823.767 117.134 823.767Z" fill="black" fill-opacity="0.42"/>
<path fill-rule="evenodd" clip-rule="evenodd" d="M117.134 887.133C113.101 887.133 109.832 890.403 109.832 894.435C109.832 898.468 113.101 901.737 117.134 901.737C121.167 901.737 124.436 898.468 124.436 894.435C124.436 890.403 121.167 887.133 117.134 887.133Z" fill="black" fill-opacity="0.42"/>
<path fill-rule="evenodd" clip-rule="evenodd" d="M117.134 940.5C113.101 940.5 109.832 943.77 109.832 947.802C109.832 951.835 113.101 955.104 117.134 955.104C121.167 955.104 124.436 951.835 124.436 947.802C124.436 943.77 121.167 940.5 117.134 940.5Z" fill="black" fill-opacity="0.42"/>
<path fill-rule="evenodd" clip-rule="evenodd" d="M117.134 993.866C113.101 993.866 109.832 997.136 109.832 1001.17C109.832 1005.2 113.101 1008.47 117.134 1008.47C121.167 1008.47 124.436 1005.2 124.436 1001.17C124.436 997.136 121.167 993.866 117.134 993.866Z" fill="black" fill-opacity="0.42"/>
<path fill-rule="evenodd" clip-rule="evenodd" d="M180.5 0.00491333C176.467 0.00491333 173.198 3.27391 173.198 7.30691C173.198 11.3389 176.467 14.6089 180.5 14.6089C184.533 14.6089 187.802 11.3389 187.802 7.30691C187.802 3.27391 184.533 0.00491333 180.5 0.00491333Z" fill="black" fill-opacity="0.42"/>
<path fill-rule="evenodd" clip-rule="evenodd" d="M180.5 63.3711C176.467 63.3711 173.198 66.6401 173.198 70.6731C173.198 74.7051 176.467 77.9751 180.5 77.9751C184.533 77.9751 187.802 74.7051 187.802 70.6731C187.802 66.6401 184.533 63.3711 180.5 63.3711Z" fill="black" fill-opacity="0.42"/>
<path fill-rule="evenodd" clip-rule="evenodd" d="M180.5 126.737C176.467 126.737 173.198 130.006 173.198 134.039C173.198 138.072 176.467 141.341 180.5 141.341C184.533 141.341 187.802 138.072 187.802 134.039C187.802 130.006 184.533 126.737 180.5 126.737Z" fill="black" fill-opacity="0.42"/>
<path fill-rule="evenodd" clip-rule="evenodd" d="M180.5 190.104C176.467 190.104 173.198 193.374 173.198 197.406C173.198 201.439 176.467 204.708 180.5 204.708C184.533 204.708 187.802 201.439 187.802 197.406C187.802 193.374 184.533 190.104 180.5 190.104Z" fill="black" fill-opacity="0.42"/>
<path fill-rule="evenodd" clip-rule="evenodd" d="M180.5 253.47C176.467 253.47 173.198 256.739 173.198 260.772C173.198 264.804 176.467 268.074 180.5 268.074C184.533 268.074 187.802 264.804 187.802 260.772C187.802 256.739 184.533 253.47 180.5 253.47Z" fill="black" fill-opacity="0.42"/>
<path fill-rule="evenodd" clip-rule="evenodd" d="M180.5 316.836C176.467 316.836 173.198 320.106 173.198 324.138C173.198 328.171 176.467 331.44 180.5 331.44C184.533 331.44 187.802 328.171 187.802 324.138C187.802 320.106 184.533 316.836 180.5 316.836Z" fill="black" fill-opacity="0.42"/>
<path fill-rule="evenodd" clip-rule="evenodd" d="M180.5 380.203C176.467 380.203 173.198 383.473 173.198 387.505C173.198 391.538 176.467 394.807 180.5 394.807C184.533 394.807 187.802 391.538 187.802 387.505C187.802 383.473 184.533 380.203 180.5 380.203Z" fill="black" fill-opacity="0.42"/>
<path fill-rule="evenodd" clip-rule="evenodd" d="M180.5 443.569C176.467 443.569 173.198 446.839 173.198 450.871C173.198 454.904 176.467 458.173 180.5 458.173C184.533 458.173 187.802 454.904 187.802 450.871C187.802 446.839 184.533 443.569 180.5 443.569Z" fill="black" fill-opacity="0.42"/>
<path fill-rule="evenodd" clip-rule="evenodd" d="M180.5 506.935C176.467 506.935 173.198 510.205 173.198 514.238C173.198 518.27 176.467 521.539 180.5 521.539C184.533 521.539 187.802 518.27 187.802 514.238C187.802 510.205 184.533 506.935 180.5 506.935Z" fill="black" fill-opacity="0.42"/>
<path fill-rule="evenodd" clip-rule="evenodd" d="M180.5 570.301C176.467 570.301 173.198 573.571 173.198 577.604C173.198 581.636 176.467 584.905 180.5 584.905C184.533 584.905 187.802 581.636 187.802 577.604C187.802 573.571 184.533 570.301 180.5 570.301Z" fill="black" fill-opacity="0.42"/>
<path fill-rule="evenodd" clip-rule="evenodd" d="M180.5 633.669C176.467 633.669 173.198 636.938 173.198 640.971C173.198 645.003 176.467 648.273 180.5 648.273C184.533 648.273 187.802 645.003 187.802 640.971C187.802 636.938 184.533 633.669 180.5 633.669Z" fill="black" fill-opacity="0.42"/>
<path fill-rule="evenodd" clip-rule="evenodd" d="M180.5 697.035C176.467 697.035 173.198 700.304 173.198 704.337C173.198 708.369 176.467 711.639 180.5 711.639C184.533 711.639 187.802 708.369 187.802 704.337C187.802 700.304 184.533 697.035 180.5 697.035Z" fill="black" fill-opacity="0.42"/>
<path fill-rule="evenodd" clip-rule="evenodd" d="M180.5 760.401C176.467 760.401 173.198 763.67 173.198 767.703C173.198 771.736 176.467 775.005 180.5 775.005C184.533 775.005 187.802 771.736 187.802 767.703C187.802 763.67 184.533 760.401 180.5 760.401Z" fill="black" fill-opacity="0.42"/>
<path fill-rule="evenodd" clip-rule="evenodd" d="M180.5 823.767C176.467 823.767 173.198 827.037 173.198 831.069C173.198 835.102 176.467 838.371 180.5 838.371C184.533 838.371 187.802 835.102 187.802 831.069C187.802 827.037 184.533 823.767 180.5 823.767Z" fill="black" fill-opacity="0.42"/>
<path fill-rule="evenodd" clip-rule="evenodd" d="M180.5 887.133C176.467 887.133 173.198 890.403 173.198 894.435C173.198 898.468 176.467 901.737 180.5 901.737C184.533 901.737 187.802 898.468 187.802 894.435C187.802 890.403 184.533 887.133 180.5 887.133Z" fill="black" fill-opacity="0.42"/>
<path fill-rule="evenodd" clip-rule="evenodd" d="M180.5 940.5C176.467 940.5 173.198 943.77 173.198 947.802C173.198 951.835 176.467 955.104 180.5 955.104C184.533 955.104 187.802 951.835 187.802 947.802C187.802 943.77 184.533 940.5 180.5 940.5Z" fill="black" fill-opacity="0.42"/>
<path fill-rule="evenodd" clip-rule="evenodd" d="M180.5 993.866C176.467 993.866 173.198 997.136 173.198 1001.17C173.198 1005.2 176.467 1008.47 180.5 1008.47C184.533 1008.47 187.802 1005.2 187.802 1001.17C187.802 997.136 184.533 993.866 180.5 993.866Z" fill="black" fill-opacity="0.42"/>
<path fill-rule="evenodd" clip-rule="evenodd" d="M243.866 0.00491333C239.834 0.00491333 236.564 3.27391 236.564 7.30691C236.564 11.3389 239.834 14.6089 243.866 14.6089C247.899 14.6089 251.168 11.3389 251.168 7.30691C251.168 3.27391 247.899 0.00491333 243.866 0.00491333Z" fill="black" fill-opacity="0.42"/>
<path fill-rule="evenodd" clip-rule="evenodd" d="M243.866 63.3711C239.834 63.3711 236.564 66.6401 236.564 70.6731C236.564 74.7051 239.834 77.9751 243.866 77.9751C247.899 77.9751 251.168 74.7051 251.168 70.6731C251.168 66.6401 247.899 63.3711 243.866 63.3711Z" fill="black" fill-opacity="0.42"/>
<path fill-rule="evenodd" clip-rule="evenodd" d="M243.866 126.737C239.834 126.737 236.564 130.006 236.564 134.039C236.564 138.072 239.834 141.341 243.866 141.341C247.899 141.341 251.168 138.072 251.168 134.039C251.168 130.006 247.899 126.737 243.866 126.737Z" fill="black" fill-opacity="0.42"/>
<path fill-rule="evenodd" clip-rule="evenodd" d="M243.866 190.104C239.834 190.104 236.564 193.374 236.564 197.406C236.564 201.439 239.834 204.708 243.866 204.708C247.899 204.708 251.168 201.439 251.168 197.406C251.168 193.374 247.899 190.104 243.866 190.104Z" fill="black" fill-opacity="0.42"/>
<path fill-rule="evenodd" clip-rule="evenodd" d="M243.866 253.47C239.834 253.47 236.564 256.739 236.564 260.772C236.564 264.804 239.834 268.074 243.866 268.074C247.899 268.074 251.168 264.804 251.168 260.772C251.168 256.739 247.899 253.47 243.866 253.47Z" fill="black" fill-opacity="0.42"/>
<path fill-rule="evenodd" clip-rule="evenodd" d="M243.866 316.836C239.834 316.836 236.564 320.106 236.564 324.138C236.564 328.171 239.834 331.44 243.866 331.44C247.899 331.44 251.168 328.171 251.168 324.138C251.168 320.106 247.899 316.836 243.866 316.836Z" fill="black" fill-opacity="0.42"/>
<path fill-rule="evenodd" clip-rule="evenodd" d="M243.866 380.203C239.834 380.203 236.564 383.473 236.564 387.505C236.564 391.538 239.834 394.807 243.866 394.807C247.899 394.807 251.168 391.538 251.168 387.505C251.168 383.473 247.899 380.203 243.866 380.203Z" fill="black" fill-opacity="0.42"/>
<path fill-rule="evenodd" clip-rule="evenodd" d="M243.866 443.569C239.834 443.569 236.564 446.839 236.564 450.871C236.564 454.904 239.834 458.173 243.866 458.173C247.899 458.173 251.168 454.904 251.168 450.871C251.168 446.839 247.899 443.569 243.866 443.569Z" fill="black" fill-opacity="0.42"/>
<path fill-rule="evenodd" clip-rule="evenodd" d="M243.866 506.935C239.834 506.935 236.564 510.205 236.564 514.238C236.564 518.27 239.834 521.539 243.866 521.539C247.899 521.539 251.168 518.27 251.168 514.238C251.168 510.205 247.899 506.935 243.866 506.935Z" fill="black" fill-opacity="0.42"/>
<path fill-rule="evenodd" clip-rule="evenodd" d="M243.866 570.301C239.834 570.301 236.564 573.571 236.564 577.604C236.564 581.636 239.834 584.905 243.866 584.905C247.899 584.905 251.168 581.636 251.168 577.604C251.168 573.571 247.899 570.301 243.866 570.301Z" fill="black" fill-opacity="0.42"/>
<path fill-rule="evenodd" clip-rule="evenodd" d="M243.866 633.669C239.834 633.669 236.564 636.938 236.564 640.971C236.564 645.003 239.834 648.273 243.866 648.273C247.899 648.273 251.168 645.003 251.168 640.971C251.168 636.938 247.899 633.669 243.866 633.669Z" fill="black" fill-opacity="0.42"/>
<path fill-rule="evenodd" clip-rule="evenodd" d="M243.866 697.035C239.834 697.035 236.564 700.304 236.564 704.337C236.564 708.369 239.834 711.639 243.866 711.639C247.899 711.639 251.168 708.369 251.168 704.337C251.168 700.304 247.899 697.035 243.866 697.035Z" fill="black" fill-opacity="0.42"/>
<path fill-rule="evenodd" clip-rule="evenodd" d="M243.866 760.401C239.834 760.401 236.564 763.67 236.564 767.703C236.564 771.736 239.834 775.005 243.866 775.005C247.899 775.005 251.168 771.736 251.168 767.703C251.168 763.67 247.899 760.401 243.866 760.401Z" fill="black" fill-opacity="0.42"/>
<path fill-rule="evenodd" clip-rule="evenodd" d="M243.866 823.767C239.834 823.767 236.564 827.037 236.564 831.069C236.564 835.102 239.834 838.371 243.866 838.371C247.899 838.371 251.168 835.102 251.168 831.069C251.168 827.037 247.899 823.767 243.866 823.767Z" fill="black" fill-opacity="0.42"/>
<path fill-rule="evenodd" clip-rule="evenodd" d="M243.866 887.133C239.834 887.133 236.564 890.403 236.564 894.435C236.564 898.468 239.834 901.737 243.866 901.737C247.899 901.737 251.168 898.468 251.168 894.435C251.168 890.403 247.899 887.133 243.866 887.133Z" fill="black" fill-opacity="0.42"/>
<path fill-rule="evenodd" clip-rule="evenodd" d="M243.866 940.5C239.834 940.5 236.564 943.77 236.564 947.802C236.564 951.835 239.834 955.104 243.866 955.104C247.899 955.104 251.168 951.835 251.168 947.802C251.168 943.77 247.899 940.5 243.866 940.5Z" fill="black" fill-opacity="0.42"/>
<path fill-rule="evenodd" clip-rule="evenodd" d="M243.866 993.866C239.834 993.866 236.564 997.136 236.564 1001.17C236.564 1005.2 239.834 1008.47 243.866 1008.47C247.899 1008.47 251.168 1005.2 251.168 1001.17C251.168 997.136 247.899 993.866 243.866 993.866Z" fill="black" fill-opacity="0.42"/>
<path fill-rule="evenodd" clip-rule="evenodd" d="M307.232 0.00491333C303.2 0.00491333 299.93 3.27391 299.93 7.30691C299.93 11.3389 303.2 14.6089 307.232 14.6089C311.265 14.6089 314.534 11.3389 314.534 7.30691C314.534 3.27391 311.265 0.00491333 307.232 0.00491333Z" fill="black" fill-opacity="0.42"/>
<path fill-rule="evenodd" clip-rule="evenodd" d="M307.232 63.3711C303.2 63.3711 299.93 66.6401 299.93 70.6731C299.93 74.7051 303.2 77.9751 307.232 77.9751C311.265 77.9751 314.534 74.7051 314.534 70.6731C314.534 66.6401 311.265 63.3711 307.232 63.3711Z" fill="black" fill-opacity="0.42"/>
<path fill-rule="evenodd" clip-rule="evenodd" d="M307.232 126.737C303.2 126.737 299.93 130.006 299.93 134.039C299.93 138.072 303.2 141.341 307.232 141.341C311.265 141.341 314.534 138.072 314.534 134.039C314.534 130.006 311.265 126.737 307.232 126.737Z" fill="black" fill-opacity="0.42"/>
<path fill-rule="evenodd" clip-rule="evenodd" d="M307.232 190.104C303.2 190.104 299.93 193.374 299.93 197.406C299.93 201.439 303.2 204.708 307.232 204.708C311.265 204.708 314.534 201.439 314.534 197.406C314.534 193.374 311.265 190.104 307.232 190.104Z" fill="black" fill-opacity="0.42"/>
<path fill-rule="evenodd" clip-rule="evenodd" d="M307.232 253.47C303.2 253.47 299.93 256.739 299.93 260.772C299.93 264.804 303.2 268.074 307.232 268.074C311.265 268.074 314.534 264.804 314.534 260.772C314.534 256.739 311.265 253.47 307.232 253.47Z" fill="black" fill-opacity="0.42"/>
<path fill-rule="evenodd" clip-rule="evenodd" d="M307.232 316.836C303.2 316.836 299.93 320.106 299.93 324.138C299.93 328.171 303.2 331.44 307.232 331.44C311.265 331.44 314.534 328.171 314.534 324.138C314.534 320.106 311.265 316.836 307.232 316.836Z" fill="black" fill-opacity="0.42"/>
<path fill-rule="evenodd" clip-rule="evenodd" d="M307.232 380.203C303.2 380.203 299.93 383.473 299.93 387.505C299.93 391.538 303.2 394.807 307.232 394.807C311.265 394.807 314.534 391.538 314.534 387.505C314.534 383.473 311.265 380.203 307.232 380.203Z" fill="black" fill-opacity="0.42"/>
<path fill-rule="evenodd" clip-rule="evenodd" d="M307.232 443.569C303.2 443.569 299.93 446.839 299.93 450.871C299.93 454.904 303.2 458.173 307.232 458.173C311.265 458.173 314.534 454.904 314.534 450.871C314.534 446.839 311.265 443.569 307.232 443.569Z" fill="black" fill-opacity="0.42"/>
<path fill-rule="evenodd" clip-rule="evenodd" d="M307.232 506.935C303.2 506.935 299.93 510.205 299.93 514.238C299.93 518.27 303.2 521.539 307.232 521.539C311.265 521.539 314.534 518.27 314.534 514.238C314.534 510.205 311.265 506.935 307.232 506.935Z" fill="black" fill-opacity="0.42"/>
<path fill-rule="evenodd" clip-rule="evenodd" d="M307.232 570.301C303.2 570.301 299.93 573.571 299.93 577.604C299.93 581.636 303.2 584.905 307.232 584.905C311.265 584.905 314.534 581.636 314.534 577.604C314.534 573.571 311.265 570.301 307.232 570.301Z" fill="black" fill-opacity="0.42"/>
<path fill-rule="evenodd" clip-rule="evenodd" d="M307.232 633.669C303.2 633.669 299.93 636.938 299.93 640.971C299.93 645.003 303.2 648.273 307.232 648.273C311.265 648.273 314.534 645.003 314.534 640.971C314.534 636.938 311.265 633.669 307.232 633.669Z" fill="black" fill-opacity="0.42"/>
<path fill-rule="evenodd" clip-rule="evenodd" d="M307.232 697.035C303.2 697.035 299.93 700.304 299.93 704.337C299.93 708.369 303.2 711.639 307.232 711.639C311.265 711.639 314.534 708.369 314.534 704.337C314.534 700.304 311.265 697.035 307.232 697.035Z" fill="black" fill-opacity="0.42"/>
<path fill-rule="evenodd" clip-rule="evenodd" d="M307.232 760.401C303.2 760.401 299.93 763.67 299.93 767.703C299.93 771.736 303.2 775.005 307.232 775.005C311.265 775.005 314.534 771.736 314.534 767.703C314.534 763.67 311.265 760.401 307.232 760.401Z" fill="black" fill-opacity="0.42"/>
<path fill-rule="evenodd" clip-rule="evenodd" d="M307.232 823.767C303.2 823.767 299.93 827.037 299.93 831.069C299.93 835.102 303.2 838.371 307.232 838.371C311.265 838.371 314.534 835.102 314.534 831.069C314.534 827.037 311.265 823.767 307.232 823.767Z" fill="black" fill-opacity="0.42"/>
<path fill-rule="evenodd" clip-rule="evenodd" d="M307.232 887.133C303.2 887.133 299.93 890.403 299.93 894.435C299.93 898.468 303.2 901.737 307.232 901.737C311.265 901.737 314.534 898.468 314.534 894.435C314.534 890.403 311.265 887.133 307.232 887.133Z" fill="black" fill-opacity="0.42"/>
<path fill-rule="evenodd" clip-rule="evenodd" d="M307.232 940.5C303.2 940.5 299.93 943.77 299.93 947.802C299.93 951.835 303.2 955.104 307.232 955.104C311.265 955.104 314.534 951.835 314.534 947.802C314.534 943.77 311.265 940.5 307.232 940.5Z" fill="black" fill-opacity="0.42"/>
<path fill-rule="evenodd" clip-rule="evenodd" d="M307.232 993.866C303.2 993.866 299.93 997.136 299.93 1001.17C299.93 1005.2 303.2 1008.47 307.232 1008.47C311.265 1008.47 314.534 1005.2 314.534 1001.17C314.534 997.136 311.265 993.866 307.232 993.866Z" fill="black" fill-opacity="0.42"/>
<path fill-rule="evenodd" clip-rule="evenodd" d="M370.599 0.00491333C366.567 0.00491333 363.297 3.27391 363.297 7.30691C363.297 11.3389 366.567 14.6089 370.599 14.6089C374.632 14.6089 377.902 11.3389 377.902 7.30691C377.902 3.27391 374.632 0.00491333 370.599 0.00491333Z" fill="black" fill-opacity="0.42"/>
<path fill-rule="evenodd" clip-rule="evenodd" d="M370.599 63.3711C366.567 63.3711 363.297 66.6401 363.297 70.6731C363.297 74.7051 366.567 77.9751 370.599 77.9751C374.632 77.9751 377.902 74.7051 377.902 70.6731C377.902 66.6401 374.632 63.3711 370.599 63.3711Z" fill="black" fill-opacity="0.42"/>
<path fill-rule="evenodd" clip-rule="evenodd" d="M370.599 126.737C366.567 126.737 363.297 130.006 363.297 134.039C363.297 138.072 366.567 141.341 370.599 141.341C374.632 141.341 377.902 138.072 377.902 134.039C377.902 130.006 374.632 126.737 370.599 126.737Z" fill="black" fill-opacity="0.42"/>
<path fill-rule="evenodd" clip-rule="evenodd" d="M370.599 190.104C366.567 190.104 363.297 193.374 363.297 197.406C363.297 201.439 366.567 204.708 370.599 204.708C374.632 204.708 377.902 201.439 377.902 197.406C377.902 193.374 374.632 190.104 370.599 190.104Z" fill="black" fill-opacity="0.42"/>
<path fill-rule="evenodd" clip-rule="evenodd" d="M370.599 253.47C366.567 253.47 363.297 256.739 363.297 260.772C363.297 264.804 366.567 268.074 370.599 268.074C374.632 268.074 377.902 264.804 377.902 260.772C377.902 256.739 374.632 253.47 370.599 253.47Z" fill="black" fill-opacity="0.42"/>
<path fill-rule="evenodd" clip-rule="evenodd" d="M370.599 316.836C366.567 316.836 363.297 320.106 363.297 324.138C363.297 328.171 366.567 331.44 370.599 331.44C374.632 331.44 377.902 328.171 377.902 324.138C377.902 320.106 374.632 316.836 370.599 316.836Z" fill="black" fill-opacity="0.42"/>
<path fill-rule="evenodd" clip-rule="evenodd" d="M370.599 380.203C366.567 380.203 363.297 383.473 363.297 387.505C363.297 391.538 366.567 394.807 370.599 394.807C374.632 394.807 377.902 391.538 377.902 387.505C377.902 383.473 374.632 380.203 370.599 380.203Z" fill="black" fill-opacity="0.42"/>
<path fill-rule="evenodd" clip-rule="evenodd" d="M370.599 443.569C366.567 443.569 363.297 446.839 363.297 450.871C363.297 454.904 366.567 458.173 370.599 458.173C374.632 458.173 377.902 454.904 377.902 450.871C377.902 446.839 374.632 443.569 370.599 443.569Z" fill="black" fill-opacity="0.42"/>
<path fill-rule="evenodd" clip-rule="evenodd" d="M370.599 506.935C366.567 506.935 363.297 510.205 363.297 514.238C363.297 518.27 366.567 521.539 370.599 521.539C374.632 521.539 377.902 518.27 377.902 514.238C377.902 510.205 374.632 506.935 370.599 506.935Z" fill="black" fill-opacity="0.42"/>
<path fill-rule="evenodd" clip-rule="evenodd" d="M370.599 570.301C366.567 570.301 363.297 573.571 363.297 577.604C363.297 581.636 366.567 584.905 370.599 584.905C374.632 584.905 377.902 581.636 377.902 577.604C377.902 573.571 374.632 570.301 370.599 570.301Z" fill="black" fill-opacity="0.42"/>
<path fill-rule="evenodd" clip-rule="evenodd" d="M370.599 633.669C366.567 633.669 363.297 636.938 363.297 640.971C363.297 645.003 366.567 648.273 370.599 648.273C374.632 648.273 377.902 645.003 377.902 640.971C377.902 636.938 374.632 633.669 370.599 633.669Z" fill="black" fill-opacity="0.42"/>
<path fill-rule="evenodd" clip-rule="evenodd" d="M370.599 697.035C366.567 697.035 363.297 700.304 363.297 704.337C363.297 708.369 366.567 711.639 370.599 711.639C374.632 711.639 377.902 708.369 377.902 704.337C377.902 700.304 374.632 697.035 370.599 697.035Z" fill="black" fill-opacity="0.42"/>
<path fill-rule="evenodd" clip-rule="evenodd" d="M370.599 760.401C366.567 760.401 363.297 763.67 363.297 767.703C363.297 771.736 366.567 775.005 370.599 775.005C374.632 775.005 377.902 771.736 377.902 767.703C377.902 763.67 374.632 760.401 370.599 760.401Z" fill="black" fill-opacity="0.42"/>
<path fill-rule="evenodd" clip-rule="evenodd" d="M370.599 823.767C366.567 823.767 363.297 827.037 363.297 831.069C363.297 835.102 366.567 838.371 370.599 838.371C374.632 838.371 377.902 835.102 377.902 831.069C377.902 827.037 374.632 823.767 370.599 823.767Z" fill="black" fill-opacity="0.42"/>
<path fill-rule="evenodd" clip-rule="evenodd" d="M370.599 887.133C366.567 887.133 363.297 890.403 363.297 894.435C363.297 898.468 366.567 901.737 370.599 901.737C374.632 901.737 377.902 898.468 377.902 894.435C377.902 890.403 374.632 887.133 370.599 887.133Z" fill="black" fill-opacity="0.42"/>
<path fill-rule="evenodd" clip-rule="evenodd" d="M370.599 940.5C366.567 940.5 363.297 943.77 363.297 947.802C363.297 951.835 366.567 955.104 370.599 955.104C374.632 955.104 377.902 951.835 377.902 947.802C377.902 943.77 374.632 940.5 370.599 940.5Z" fill="black" fill-opacity="0.42"/>
<path fill-rule="evenodd" clip-rule="evenodd" d="M370.599 993.866C366.567 993.866 363.297 997.136 363.297 1001.17C363.297 1005.2 366.567 1008.47 370.599 1008.47C374.632 1008.47 377.902 1005.2 377.902 1001.17C377.902 997.136 374.632 993.866 370.599 993.866Z" fill="black" fill-opacity="0.42"/>
<path fill-rule="evenodd" clip-rule="evenodd" d="M433.966 0.00491333C429.933 0.00491333 426.663 3.27391 426.663 7.30691C426.663 11.3389 429.933 14.6089 433.966 14.6089C437.998 14.6089 441.268 11.3389 441.268 7.30691C441.268 3.27391 437.998 0.00491333 433.966 0.00491333Z" fill="black" fill-opacity="0.42"/>
<path fill-rule="evenodd" clip-rule="evenodd" d="M433.966 63.3711C429.933 63.3711 426.663 66.6401 426.663 70.6731C426.663 74.7051 429.933 77.9751 433.966 77.9751C437.998 77.9751 441.268 74.7051 441.268 70.6731C441.268 66.6401 437.998 63.3711 433.966 63.3711Z" fill="black" fill-opacity="0.42"/>
<path fill-rule="evenodd" clip-rule="evenodd" d="M433.966 126.737C429.933 126.737 426.663 130.006 426.663 134.039C426.663 138.072 429.933 141.341 433.966 141.341C437.998 141.341 441.268 138.072 441.268 134.039C441.268 130.006 437.998 126.737 433.966 126.737Z" fill="black" fill-opacity="0.42"/>
<path fill-rule="evenodd" clip-rule="evenodd" d="M433.966 190.104C429.933 190.104 426.663 193.374 426.663 197.406C426.663 201.439 429.933 204.708 433.966 204.708C437.998 204.708 441.268 201.439 441.268 197.406C441.268 193.374 437.998 190.104 433.966 190.104Z" fill="black" fill-opacity="0.42"/>
<path fill-rule="evenodd" clip-rule="evenodd" d="M433.966 253.47C429.933 253.47 426.663 256.739 426.663 260.772C426.663 264.804 429.933 268.074 433.966 268.074C437.998 268.074 441.268 264.804 441.268 260.772C441.268 256.739 437.998 253.47 433.966 253.47Z" fill="black" fill-opacity="0.42"/>
<path fill-rule="evenodd" clip-rule="evenodd" d="M433.966 316.836C429.933 316.836 426.663 320.106 426.663 324.138C426.663 328.171 429.933 331.44 433.966 331.44C437.998 331.44 441.268 328.171 441.268 324.138C441.268 320.106 437.998 316.836 433.966 316.836Z" fill="black" fill-opacity="0.42"/>
<path fill-rule="evenodd" clip-rule="evenodd" d="M433.966 380.203C429.933 380.203 426.663 383.473 426.663 387.505C426.663 391.538 429.933 394.807 433.966 394.807C437.998 394.807 441.268 391.538 441.268 387.505C441.268 383.473 437.998 380.203 433.966 380.203Z" fill="black" fill-opacity="0.42"/>
<path fill-rule="evenodd" clip-rule="evenodd" d="M433.966 443.569C429.933 443.569 426.663 446.839 426.663 450.871C426.663 454.904 429.933 458.173 433.966 458.173C437.998 458.173 441.268 454.904 441.268 450.871C441.268 446.839 437.998 443.569 433.966 443.569Z" fill="black" fill-opacity="0.42"/>
<path fill-rule="evenodd" clip-rule="evenodd" d="M433.966 506.935C429.933 506.935 426.663 510.205 426.663 514.238C426.663 518.27 429.933 521.539 433.966 521.539C437.998 521.539 441.268 518.27 441.268 514.238C441.268 510.205 437.998 506.935 433.966 506.935Z" fill="black" fill-opacity="0.42"/>
<path fill-rule="evenodd" clip-rule="evenodd" d="M433.966 570.301C429.933 570.301 426.663 573.571 426.663 577.604C426.663 581.636 429.933 584.905 433.966 584.905C437.998 584.905 441.268 581.636 441.268 577.604C441.268 573.571 437.998 570.301 433.966 570.301Z" fill="black" fill-opacity="0.42"/>
<path fill-rule="evenodd" clip-rule="evenodd" d="M433.966 633.669C429.933 633.669 426.663 636.938 426.663 640.971C426.663 645.003 429.933 648.273 433.966 648.273C437.998 648.273 441.268 645.003 441.268 640.971C441.268 636.938 437.998 633.669 433.966 633.669Z" fill="black" fill-opacity="0.42"/>
<path fill-rule="evenodd" clip-rule="evenodd" d="M433.966 697.035C429.933 697.035 426.663 700.304 426.663 704.337C426.663 708.369 429.933 711.639 433.966 711.639C437.998 711.639 441.268 708.369 441.268 704.337C441.268 700.304 437.998 697.035 433.966 697.035Z" fill="black" fill-opacity="0.42"/>
<path fill-rule="evenodd" clip-rule="evenodd" d="M433.966 760.401C429.933 760.401 426.663 763.67 426.663 767.703C426.663 771.736 429.933 775.005 433.966 775.005C437.998 775.005 441.268 771.736 441.268 767.703C441.268 763.67 437.998 760.401 433.966 760.401Z" fill="black" fill-opacity="0.42"/>
<path fill-rule="evenodd" clip-rule="evenodd" d="M433.966 823.767C429.933 823.767 426.663 827.037 426.663 831.069C426.663 835.102 429.933 838.371 433.966 838.371C437.998 838.371 441.268 835.102 441.268 831.069C441.268 827.037 437.998 823.767 433.966 823.767Z" fill="black" fill-opacity="0.42"/>
<path fill-rule="evenodd" clip-rule="evenodd" d="M433.966 887.133C429.933 887.133 426.663 890.403 426.663 894.435C426.663 898.468 429.933 901.737 433.966 901.737C437.998 901.737 441.268 898.468 441.268 894.435C441.268 890.403 437.998 887.133 433.966 887.133Z" fill="black" fill-opacity="0.42"/>
<path fill-rule="evenodd" clip-rule="evenodd" d="M433.966 940.5C429.933 940.5 426.663 943.77 426.663 947.802C426.663 951.835 429.933 955.104 433.966 955.104C437.998 955.104 441.268 951.835 441.268 947.802C441.268 943.77 437.998 940.5 433.966 940.5Z" fill="black" fill-opacity="0.42"/>
<path fill-rule="evenodd" clip-rule="evenodd" d="M433.966 993.866C429.933 993.866 426.663 997.136 426.663 1001.17C426.663 1005.2 429.933 1008.47 433.966 1008.47C437.998 1008.47 441.268 1005.2 441.268 1001.17C441.268 997.136 437.998 993.866 433.966 993.866Z" fill="black" fill-opacity="0.42"/>
<path fill-rule="evenodd" clip-rule="evenodd" d="M497.332 0.00491333C493.299 0.00491333 490.029 3.27391 490.029 7.30691C490.029 11.3389 493.299 14.6089 497.332 14.6089C501.364 14.6089 504.634 11.3389 504.634 7.30691C504.634 3.27391 501.364 0.00491333 497.332 0.00491333Z" fill="black" fill-opacity="0.42"/>
<path fill-rule="evenodd" clip-rule="evenodd" d="M497.332 63.3711C493.299 63.3711 490.029 66.6401 490.029 70.6731C490.029 74.7051 493.299 77.9751 497.332 77.9751C501.364 77.9751 504.634 74.7051 504.634 70.6731C504.634 66.6401 501.364 63.3711 497.332 63.3711Z" fill="black" fill-opacity="0.42"/>
<path fill-rule="evenodd" clip-rule="evenodd" d="M497.332 126.737C493.299 126.737 490.029 130.006 490.029 134.039C490.029 138.072 493.299 141.341 497.332 141.341C501.364 141.341 504.634 138.072 504.634 134.039C504.634 130.006 501.364 126.737 497.332 126.737Z" fill="black" fill-opacity="0.42"/>
<path fill-rule="evenodd" clip-rule="evenodd" d="M497.332 190.104C493.299 190.104 490.029 193.374 490.029 197.406C490.029 201.439 493.299 204.708 497.332 204.708C501.364 204.708 504.634 201.439 504.634 197.406C504.634 193.374 501.364 190.104 497.332 190.104Z" fill="black" fill-opacity="0.42"/>
<path fill-rule="evenodd" clip-rule="evenodd" d="M497.332 253.47C493.299 253.47 490.029 256.739 490.029 260.772C490.029 264.804 493.299 268.074 497.332 268.074C501.364 268.074 504.634 264.804 504.634 260.772C504.634 256.739 501.364 253.47 497.332 253.47Z" fill="black" fill-opacity="0.42"/>
<path fill-rule="evenodd" clip-rule="evenodd" d="M497.332 316.836C493.299 316.836 490.029 320.106 490.029 324.138C490.029 328.171 493.299 331.44 497.332 331.44C501.364 331.44 504.634 328.171 504.634 324.138C504.634 320.106 501.364 316.836 497.332 316.836Z" fill="black" fill-opacity="0.42"/>
<path fill-rule="evenodd" clip-rule="evenodd" d="M497.332 380.203C493.299 380.203 490.029 383.473 490.029 387.505C490.029 391.538 493.299 394.807 497.332 394.807C501.364 394.807 504.634 391.538 504.634 387.505C504.634 383.473 501.364 380.203 497.332 380.203Z" fill="black" fill-opacity="0.42"/>
<path fill-rule="evenodd" clip-rule="evenodd" d="M497.332 443.569C493.299 443.569 490.029 446.839 490.029 450.871C490.029 454.904 493.299 458.173 497.332 458.173C501.364 458.173 504.634 454.904 504.634 450.871C504.634 446.839 501.364 443.569 497.332 443.569Z" fill="black" fill-opacity="0.42"/>
<path fill-rule="evenodd" clip-rule="evenodd" d="M497.332 506.935C493.299 506.935 490.029 510.205 490.029 514.238C490.029 518.27 493.299 521.539 497.332 521.539C501.364 521.539 504.634 518.27 504.634 514.238C504.634 510.205 501.364 506.935 497.332 506.935Z" fill="black" fill-opacity="0.42"/>
<path fill-rule="evenodd" clip-rule="evenodd" d="M497.332 570.301C493.299 570.301 490.029 573.571 490.029 577.604C490.029 581.636 493.299 584.905 497.332 584.905C501.364 584.905 504.634 581.636 504.634 577.604C504.634 573.571 501.364 570.301 497.332 570.301Z" fill="black" fill-opacity="0.42"/>
<path fill-rule="evenodd" clip-rule="evenodd" d="M497.332 633.669C493.299 633.669 490.029 636.938 490.029 640.971C490.029 645.003 493.299 648.273 497.332 648.273C501.364 648.273 504.634 645.003 504.634 640.971C504.634 636.938 501.364 633.669 497.332 633.669Z" fill="black" fill-opacity="0.42"/>
<path fill-rule="evenodd" clip-rule="evenodd" d="M497.332 697.035C493.299 697.035 490.029 700.304 490.029 704.337C490.029 708.369 493.299 711.639 497.332 711.639C501.364 711.639 504.634 708.369 504.634 704.337C504.634 700.304 501.364 697.035 497.332 697.035Z" fill="black" fill-opacity="0.42"/>
<path fill-rule="evenodd" clip-rule="evenodd" d="M497.332 760.401C493.299 760.401 490.029 763.67 490.029 767.703C490.029 771.736 493.299 775.005 497.332 775.005C501.364 775.005 504.634 771.736 504.634 767.703C504.634 763.67 501.364 760.401 497.332 760.401Z" fill="black" fill-opacity="0.42"/>
<path fill-rule="evenodd" clip-rule="evenodd" d="M497.332 823.767C493.299 823.767 490.029 827.037 490.029 831.069C490.029 835.102 493.299 838.371 497.332 838.371C501.364 838.371 504.634 835.102 504.634 831.069C504.634 827.037 501.364 823.767 497.332 823.767Z" fill="black" fill-opacity="0.42"/>
<path fill-rule="evenodd" clip-rule="evenodd" d="M497.332 887.133C493.299 887.133 490.029 890.403 490.029 894.435C490.029 898.468 493.299 901.737 497.332 901.737C501.364 901.737 504.634 898.468 504.634 894.435C504.634 890.403 501.364 887.133 497.332 887.133Z" fill="black" fill-opacity="0.42"/>
<path fill-rule="evenodd" clip-rule="evenodd" d="M497.332 940.5C493.299 940.5 490.029 943.77 490.029 947.802C490.029 951.835 493.299 955.104 497.332 955.104C501.364 955.104 504.634 951.835 504.634 947.802C504.634 943.77 501.364 940.5 497.332 940.5Z" fill="black" fill-opacity="0.42"/>
<path fill-rule="evenodd" clip-rule="evenodd" d="M497.332 993.866C493.299 993.866 490.029 997.136 490.029 1001.17C490.029 1005.2 493.299 1008.47 497.332 1008.47C501.364 1008.47 504.634 1005.2 504.634 1001.17C504.634 997.136 501.364 993.866 497.332 993.866Z" fill="black" fill-opacity="0.42"/>
<path fill-rule="evenodd" clip-rule="evenodd" d="M560.698 0.00491333C556.665 0.00491333 553.396 3.27391 553.396 7.30691C553.396 11.3389 556.665 14.6089 560.698 14.6089C564.73 14.6089 568 11.3389 568 7.30691C568 3.27391 564.73 0.00491333 560.698 0.00491333Z" fill="black" fill-opacity="0.42"/>
<path fill-rule="evenodd" clip-rule="evenodd" d="M560.698 63.3711C556.665 63.3711 553.396 66.6401 553.396 70.6731C553.396 74.7051 556.665 77.9751 560.698 77.9751C564.73 77.9751 568 74.7051 568 70.6731C568 66.6401 564.73 63.3711 560.698 63.3711Z" fill="black" fill-opacity="0.42"/>
<path fill-rule="evenodd" clip-rule="evenodd" d="M560.698 126.737C556.665 126.737 553.396 130.006 553.396 134.039C553.396 138.072 556.665 141.341 560.698 141.341C564.73 141.341 568 138.072 568 134.039C568 130.006 564.73 126.737 560.698 126.737Z" fill="black" fill-opacity="0.42"/>
<path fill-rule="evenodd" clip-rule="evenodd" d="M560.698 190.104C556.665 190.104 553.396 193.374 553.396 197.406C553.396 201.439 556.665 204.708 560.698 204.708C564.73 204.708 568 201.439 568 197.406C568 193.374 564.73 190.104 560.698 190.104Z" fill="black" fill-opacity="0.42"/>
<path fill-rule="evenodd" clip-rule="evenodd" d="M560.698 253.47C556.665 253.47 553.396 256.739 553.396 260.772C553.396 264.804 556.665 268.074 560.698 268.074C564.73 268.074 568 264.804 568 260.772C568 256.739 564.73 253.47 560.698 253.47Z" fill="black" fill-opacity="0.42"/>
<path fill-rule="evenodd" clip-rule="evenodd" d="M560.698 316.836C556.665 316.836 553.396 320.106 553.396 324.138C553.396 328.171 556.665 331.44 560.698 331.44C564.73 331.44 568 328.171 568 324.138C568 320.106 564.73 316.836 560.698 316.836Z" fill="black" fill-opacity="0.42"/>
<path fill-rule="evenodd" clip-rule="evenodd" d="M560.698 380.203C556.665 380.203 553.396 383.473 553.396 387.505C553.396 391.538 556.665 394.807 560.698 394.807C564.73 394.807 568 391.538 568 387.505C568 383.473 564.73 380.203 560.698 380.203Z" fill="black" fill-opacity="0.42"/>
<path fill-rule="evenodd" clip-rule="evenodd" d="M560.698 443.569C556.665 443.569 553.396 446.839 553.396 450.871C553.396 454.904 556.665 458.173 560.698 458.173C564.73 458.173 568 454.904 568 450.871C568 446.839 564.73 443.569 560.698 443.569Z" fill="black" fill-opacity="0.42"/>
<path fill-rule="evenodd" clip-rule="evenodd" d="M560.698 506.935C556.665 506.935 553.396 510.205 553.396 514.238C553.396 518.27 556.665 521.539 560.698 521.539C564.73 521.539 568 518.27 568 514.238C568 510.205 564.73 506.935 560.698 506.935Z" fill="black" fill-opacity="0.42"/>
<path fill-rule="evenodd" clip-rule="evenodd" d="M560.698 570.301C556.665 570.301 553.396 573.571 553.396 577.604C553.396 581.636 556.665 584.905 560.698 584.905C564.73 584.905 568 581.636 568 577.604C568 573.571 564.73 570.301 560.698 570.301Z" fill="black" fill-opacity="0.42"/>
<path fill-rule="evenodd" clip-rule="evenodd" d="M560.698 633.669C556.665 633.669 553.396 636.938 553.396 640.971C553.396 645.003 556.665 648.273 560.698 648.273C564.73 648.273 568 645.003 568 640.971C568 636.938 564.73 633.669 560.698 633.669Z" fill="black" fill-opacity="0.42"/>
<path fill-rule="evenodd" clip-rule="evenodd" d="M560.698 697.035C556.665 697.035 553.396 700.304 553.396 704.337C553.396 708.369 556.665 711.639 560.698 711.639C564.73 711.639 568 708.369 568 704.337C568 700.304 564.73 697.035 560.698 697.035Z" fill="black" fill-opacity="0.42"/>
<path fill-rule="evenodd" clip-rule="evenodd" d="M560.698 760.401C556.665 760.401 553.396 763.67 553.396 767.703C553.396 771.736 556.665 775.005 560.698 775.005C564.73 775.005 568 771.736 568 767.703C568 763.67 564.73 760.401 560.698 760.401Z" fill="black" fill-opacity="0.42"/>
<path fill-rule="evenodd" clip-rule="evenodd" d="M560.698 823.767C556.665 823.767 553.396 827.037 553.396 831.069C553.396 835.102 556.665 838.371 560.698 838.371C564.73 838.371 568 835.102 568 831.069C568 827.037 564.73 823.767 560.698 823.767Z" fill="black" fill-opacity="0.42"/>
<path fill-rule="evenodd" clip-rule="evenodd" d="M560.698 887.133C556.665 887.133 553.396 890.403 553.396 894.435C553.396 898.468 556.665 901.737 560.698 901.737C564.73 901.737 568 898.468 568 894.435C568 890.403 564.73 887.133 560.698 887.133Z" fill="black" fill-opacity="0.42"/>
<path fill-rule="evenodd" clip-rule="evenodd" d="M560.698 940.5C556.665 940.5 553.396 943.77 553.396 947.802C553.396 951.835 556.665 955.104 560.698 955.104C564.73 955.104 568 951.835 568 947.802C568 943.77 564.73 940.5 560.698 940.5Z" fill="black" fill-opacity="0.42"/>
<path fill-rule="evenodd" clip-rule="evenodd" d="M560.698 993.866C556.665 993.866 553.396 997.136 553.396 1001.17C553.396 1005.2 556.665 1008.47 560.698 1008.47C564.73 1008.47 568 1005.2 568 1001.17C568 997.136 564.73 993.866 560.698 993.866Z" fill="black" fill-opacity="0.42"/>
</g>
</svg>
