<svg width="334" height="334" viewBox="0 0 334 334" fill="none" xmlns="http://www.w3.org/2000/svg">
<rect x="166.879" y="0.707107" width="235" height="235" rx="19.5" transform="rotate(45 166.879 0.707107)" stroke="#00BCD4"/>
<rect x="-0.707107" width="45" height="45" rx="2.5" transform="matrix(-0.707107 -0.707107 -0.707107 0.707107 248.199 287.377)" fill="#00BCD4" stroke="#00BCD4"/>
<path fill-rule="evenodd" clip-rule="evenodd" d="M144 213.5C144 197.208 157.431 184 174 184C190.561 184.018 203.981 197.215 204 213.5C204 229.792 190.569 243 174 243C157.432 243 144 229.793 144 213.5ZM183.6 217.433C183.6 213.963 180.37 211.14 176.4 211.14H171.6C170.185 211.14 169.2 210.311 169.2 209.566V205.634C169.2 204.889 170.185 204.06 171.6 204.06H176.4C177.814 204.06 178.8 204.889 178.8 205.634C178.8 206.937 179.874 207.994 181.2 207.994C182.525 207.994 183.6 206.937 183.6 205.634C183.6 202.163 180.37 199.34 176.4 199.34V195.8C176.4 194.497 175.325 193.44 174 193.44C172.674 193.44 171.6 194.497 171.6 195.8V199.34C167.629 199.34 164.4 202.163 164.4 205.634V209.566C164.4 213.037 167.629 215.86 171.6 215.86H176.4C177.814 215.86 178.8 216.689 178.8 217.433V221.366C178.8 222.111 177.814 222.94 176.4 222.94H171.6C170.185 222.94 169.2 222.111 169.2 221.366C169.2 220.063 168.125 219.006 166.8 219.006C165.474 219.006 164.4 220.063 164.4 221.366C164.4 224.837 167.629 227.66 171.6 227.66V231.2C171.6 232.503 172.674 233.56 174 233.56C175.325 233.56 176.4 232.503 176.4 231.2V227.66C180.37 227.66 183.6 224.837 183.6 221.366V217.433Z" fill="black"/>
<path fill-rule="evenodd" clip-rule="evenodd" d="M145.414 192C151.989 183.888 161.958 179.164 172.5 179.164C183.042 179.164 193.011 183.888 199.586 192C207.525 184.562 212.013 174.241 212 163.453C212 150.358 198.167 131.079 186.339 116.988L193.791 102.379C194.174 101.627 194.121 100.732 193.653 100.028C193.466 99.7485 188.997 93.1644 181.754 92.1587C177.807 91.6977 173.835 92.8057 170.721 95.2371C167.972 92.8617 164.347 91.7121 160.707 92.0615C153.647 92.8969 149.125 99.7634 148.936 100.055C148.46 100.791 148.435 101.724 148.872 102.483L157.806 118.012C146.176 132.001 133 150.673 133 163.453C132.987 174.241 137.475 184.562 145.414 192ZM174.894 150.888C178.858 150.892 182.071 154.055 182.076 157.957V162.67C182.071 166.573 178.858 169.735 174.894 169.739V174.452C174.894 175.753 173.822 176.808 172.5 176.808C171.178 176.808 170.106 175.753 170.106 174.452V169.739C166.141 169.735 162.929 166.573 162.924 162.67C162.924 161.369 163.996 160.314 165.318 160.314C166.64 160.314 167.712 161.369 167.712 162.67C167.714 163.971 168.785 165.025 170.106 165.027H174.894C176.215 165.025 177.286 163.971 177.288 162.67V157.957C177.286 156.657 176.215 155.603 174.894 155.601H170.106C166.141 155.597 162.929 152.434 162.924 148.532V143.819C162.929 139.917 166.141 136.754 170.106 136.75V132.037C170.106 130.736 171.178 129.681 172.5 129.681C173.822 129.681 174.894 130.736 174.894 132.037V136.75C178.858 136.754 182.071 139.917 182.076 143.819C182.076 145.121 181.004 146.176 179.682 146.176C178.36 146.176 177.288 145.121 177.288 143.819C177.286 142.518 176.215 141.464 174.894 141.463H170.106C168.785 141.464 167.714 142.518 167.712 143.819V148.532C167.714 149.833 168.785 150.887 170.106 150.888H174.894ZM161.297 96.7386C157.876 97.1338 155.119 99.9119 153.806 101.496L161.887 115.542H181.719L188.838 101.585C187.524 100.057 184.706 97.3168 181.059 96.8214C178.208 96.4343 175.256 97.5129 172.284 100.025C171.85 100.392 171.296 100.593 170.724 100.594H170.569C169.952 100.594 169.358 100.359 168.913 99.9384C166.355 97.5262 163.789 96.4469 161.297 96.7386Z" fill="black"/>
<path fill-rule="evenodd" clip-rule="evenodd" d="M216.36 160.129C217.267 160.047 218.186 160 219.116 160C231.282 160 242.233 167.28 246.807 178.408C251.38 189.536 248.664 202.291 239.938 210.659C231.211 219.027 218.218 221.336 207.083 216.5C207.13 215.765 207.163 215.026 207.163 214.28C207.163 213.374 207.117 212.478 207.046 211.59C207.042 211.531 207.038 211.473 207.035 211.414C207.03 211.343 207.026 211.271 207.02 211.2L207.016 211.197C206.556 206.117 204.943 201.204 202.298 196.823C205.261 194.129 207.844 191.052 209.975 187.677C211.163 190.29 213.826 191.94 216.726 191.86H221.507C222.918 191.86 223.898 192.686 223.898 193.429V197.371C223.898 198.114 222.918 198.94 221.507 198.94H216.726C215.315 198.94 214.335 198.114 214.335 197.371C214.335 196.067 213.265 195.011 211.945 195.011C210.624 195.011 209.554 196.067 209.554 197.371C209.554 200.84 212.769 203.66 216.726 203.66V207.2C216.726 208.503 217.796 209.56 219.116 209.56C220.437 209.56 221.507 208.503 221.507 207.2V203.66C225.464 203.66 228.679 200.84 228.679 197.371V193.429C228.679 189.96 225.464 187.14 221.507 187.14H216.726C215.315 187.14 214.335 186.314 214.335 185.571V181.629C214.335 180.886 215.315 180.06 216.726 180.06H221.507C222.918 180.06 223.898 180.886 223.898 181.629C223.898 182.933 224.968 183.989 226.288 183.989C227.609 183.989 228.679 182.933 228.679 181.629C228.679 178.16 225.464 175.34 221.507 175.34V171.8C221.507 170.497 220.437 169.44 219.116 169.44C217.796 169.44 216.726 170.497 216.726 171.8V175.34C216.245 175.341 215.765 175.385 215.291 175.47C215.285 175.495 215.277 175.52 215.268 175.546C215.26 175.57 215.253 175.594 215.246 175.619C216.229 171.932 216.727 168.136 216.726 164.324C216.714 162.918 216.592 161.516 216.36 160.129ZM137.917 216.5C134.125 218.15 130.026 219.002 125.883 219C109.379 219 96 205.792 96 189.5C96 173.208 109.379 160 125.883 160C126.813 160 127.732 160.047 128.639 160.129C128.407 161.516 128.285 162.918 128.273 164.324C128.274 168.266 128.808 172.192 129.861 175.995C129.839 175.919 129.816 175.843 129.793 175.767C129.764 175.668 129.734 175.57 129.708 175.47C129.234 175.385 128.754 175.341 128.273 175.34V171.8C128.273 170.497 127.203 169.44 125.883 169.44C124.562 169.44 123.492 170.497 123.492 171.8V175.34C119.536 175.34 116.32 178.16 116.32 181.629V185.571C116.32 189.04 119.536 191.86 123.492 191.86H128.273C129.684 191.86 130.664 192.686 130.664 193.429V197.371C130.664 198.114 129.684 198.94 128.273 198.94H123.492C122.082 198.94 121.101 198.114 121.101 197.371C121.101 196.067 120.031 195.011 118.711 195.011C117.391 195.011 116.32 196.067 116.32 197.371C116.32 200.84 119.536 203.66 123.492 203.66V207.2C123.492 208.503 124.562 209.56 125.883 209.56C127.203 209.56 128.273 208.503 128.273 207.2V203.66C132.23 203.66 135.445 200.84 135.445 197.371V193.429C135.445 189.96 132.23 187.14 128.273 187.14H123.492C122.082 187.14 121.101 186.314 121.101 185.571V181.629C121.101 180.886 122.082 180.06 123.492 180.06H128.273C129.684 180.06 130.664 180.886 130.664 181.629C130.663 182.886 131.664 183.92 132.935 183.978C135.369 188.813 138.678 193.167 142.7 196.826C140.055 201.207 138.443 206.119 137.983 211.198L137.979 211.2L137.979 211.2C137.967 211.424 137.955 211.649 137.931 211.861L137.932 211.863C137.875 212.662 137.836 213.467 137.836 214.28C137.836 215.026 137.869 215.765 137.917 216.5Z" fill="black"/>
</svg>
