<svg width="334" height="334" viewBox="0 0 334 334" fill="none" xmlns="http://www.w3.org/2000/svg">
<rect x="166.879" y="0.707107" width="235" height="235" rx="19.5" transform="rotate(45 166.879 0.707107)" stroke="#00BCD4"/>
<rect x="-0.707107" width="45" height="45" rx="2.5" transform="matrix(-0.707107 -0.707107 -0.707107 0.707107 248.199 287.377)" fill="#00BCD4" stroke="#00BCD4"/>
<path fill-rule="evenodd" clip-rule="evenodd" d="M224.501 211.5C225.883 211.5 227 210.382 227 209C227 207.618 225.881 206.501 224.501 206.501V116.499C224.501 115.824 224.249 115.198 223.775 114.724C223.3 114.25 222.674 114 222 114H149.501C148.127 114 147 115.126 147 116.499C147 117.874 148.127 119 149.501 119H219.501V206.503H169.907L188.737 200.225C192.184 199.073 194.502 195.862 194.502 192.229C194.502 189.486 193.224 186.992 191 185.389C188.773 183.786 186.009 183.359 183.404 184.233L154.095 194H147.799C150.395 191.077 152 187.116 152 182.75C152 173.789 145.272 166.499 137.001 166.499C128.73 166.499 122.001 173.789 122.001 182.75C122.001 187.116 123.606 191.077 126.202 194H119.5C117.723 194 116.033 194.378 114.501 195.051V119.001H129.502C130.876 119.001 132.001 117.875 132.001 116.501C132.001 115.128 130.9 114.025 129.525 114.001H129.5H112C111.351 114.001 110.7 114.274 110.225 114.726C109.774 115.199 109.501 115.825 109.501 116.501V199.033C107.937 201.119 107 203.7 107 206.501V231.499C107 232.881 108.119 234 109.501 234C110.883 234 112 232.881 112 231.499V211.5V209V206.501C112 204.286 112.97 202.3 114.501 200.925C115.829 199.732 117.578 199 119.5 199H133.997L132.481 206.501L131.976 209L131.47 211.5L129.548 221.004C129.387 221.803 129.627 222.632 130.187 223.222L135.187 228.485C135.659 228.984 136.313 229.265 136.999 229.265C137.687 229.265 138.34 228.984 138.811 228.485L143.811 223.222C144.373 222.63 144.611 221.803 144.451 221.004L142.53 211.5L142.024 209L141.52 206.501L140.004 199H154.501C154.77 199 155.035 198.956 155.292 198.871L184.985 188.975C186.043 188.624 187.171 188.795 188.074 189.447C188.98 190.098 189.5 191.114 189.5 192.23C189.5 193.706 188.559 195.015 187.154 195.484L154.098 206.503L153.71 206.632C152.689 206.97 152 207.925 152 209.002V211.501V231.499C152 232.881 153.119 234 154.501 234C155.883 234 157 232.881 157 231.499V211.5H222H224.501ZM139.501 114.001C138.127 114.001 137.001 115.128 137.001 116.501C137.001 117.875 138.127 119.001 139.501 119.001C140.876 119.001 142.001 117.875 142.001 116.501C142.001 115.128 140.876 114.001 139.501 114.001ZM117 209C117 207.618 118.118 206.501 119.5 206.501C120.882 206.501 122.001 207.618 122 209.002V211.501V231.499C122 232.881 120.882 234 119.5 234C118.118 234 117 232.881 117 231.499V211.5V209ZM132.001 144.001C132.001 145.383 133.12 146.5 134.502 146.5H164.501C165.883 146.5 167 145.383 167 144.001C167 142.619 165.883 141.5 164.501 141.5H134.5C133.12 141.5 132.001 142.619 132.001 144.001ZM152 131.501C153.375 131.501 154.501 132.627 154.501 134.001C154.501 135.376 153.375 136.5 152 136.5C150.626 136.5 149.501 135.376 149.501 134.001C149.501 132.627 150.626 131.501 152 131.501ZM164.501 136.5C165.875 136.5 167 135.376 167 134.001C167 132.627 165.875 131.501 164.501 131.501H162C160.626 131.501 159.501 132.627 159.501 134.001C159.501 135.376 160.626 136.5 162 136.5H164.501ZM141.999 136.5H134.5C133.126 136.5 132.001 135.376 131.999 134.001C131.999 132.627 133.126 131.501 134.5 131.501H141.999C143.374 131.501 144.5 132.627 144.5 134.001C144.5 135.376 143.374 136.5 141.999 136.5ZM157 154.001C157 152.626 155.876 151.5 154.501 151.5H134.5C133.126 151.5 131.999 152.626 131.999 154.001C131.999 155.376 133.126 156.5 134.5 156.5H154.5C155.876 156.5 157 155.376 157 154.001ZM162 154.001C162 152.626 163.126 151.5 164.501 151.5C165.875 151.5 167 152.626 167 154.001C167 155.376 165.875 156.5 164.501 156.5C163.126 156.5 162 155.376 162 154.001ZM152 166.5H164.501C165.883 166.5 167 165.383 167 164.001C167 162.619 165.883 161.502 164.501 161.502H152C150.618 161.502 149.501 162.619 149.501 164.001C149.501 165.383 150.618 166.5 152 166.5ZM137.001 194C142.515 194 147 188.954 147 182.75C147 176.545 142.515 171.499 137.001 171.499C131.486 171.499 127.001 176.545 127.001 182.75C127.001 188.954 131.486 194 137.001 194ZM137.001 209.383L137.429 211.501L139.293 220.721L137.001 223.134L134.708 220.721L136.572 211.501L137.001 209.383ZM174.501 164.001H184.5V156.5C184.5 155.12 185.618 154.001 187 154.001H199.5C200.882 154.001 201.999 155.12 201.999 156.5V159.001H211.999C213.381 159.001 214.5 160.12 214.5 161.502V176.5C214.5 177.882 213.381 179.001 211.999 179.001H199.5H187H174.501C173.119 179.001 172 177.882 172 176.5V166.5C172 165.118 173.119 164.001 174.501 164.001ZM201.999 164.001H209.5V174.001H201.999V164.001ZM189.5 174.001H196.999V161.502V159.001H189.5V166.5V174.001ZM177 169.001H184.5V174.001H177V169.001ZM197.966 140.251H200.465C201.847 140.251 202.966 139.132 202.966 137.75C202.966 136.368 201.847 135.249 200.465 135.249H197.966C196.584 135.249 195.466 136.368 195.466 137.75C195.467 139.132 196.584 140.251 197.966 140.251ZM190.466 130.251C190.466 128.869 191.584 127.75 192.966 127.75C194.348 127.75 195.467 128.869 195.466 130.251V132.75C195.466 134.132 194.348 135.249 192.966 135.249C191.584 135.249 190.466 134.132 190.466 132.75V130.251ZM187.966 135.249H185.466C184.084 135.249 182.967 136.368 182.967 137.75C182.967 139.132 184.084 140.251 185.466 140.251H187.966C189.348 140.251 190.466 139.132 190.466 137.75C190.466 136.368 189.348 135.249 187.966 135.249ZM192.966 147.75C191.584 147.75 190.466 146.633 190.466 145.251V142.75C190.466 141.368 191.584 140.251 192.966 140.251C194.348 140.251 195.466 141.368 195.466 142.75V145.251C195.466 146.633 194.348 147.75 192.966 147.75Z" fill="black"/>
</svg>
