<svg width="334" height="334" viewBox="0 0 334 334" fill="none" xmlns="http://www.w3.org/2000/svg">
<rect x="166.879" y="0.707107" width="235" height="235" rx="19.5" transform="rotate(45 166.879 0.707107)" stroke="#00BCD4"/>
<rect x="-0.707107" width="45" height="45" rx="2.5" transform="matrix(-0.707107 -0.707107 -0.707107 0.707107 248.199 287.377)" fill="#00BCD4" stroke="#00BCD4"/>
<path fill-rule="evenodd" clip-rule="evenodd" d="M207.995 158.828L223 145V145C224.812 144.547 226.453 146.188 226 148V148L205.829 167.25L184 145L183.8 143.6C183.544 141.806 185.719 140.719 187 142V142L203.594 158.794C203.508 130.609 183.96 106.187 158 99C158 99 157 98.5 157 97C157 95.5 158 95 158 95C158 95 159.384 95.3074 159.619 95.3721C187.48 103.06 207.938 128.549 207.995 158.828Z" fill="black"/>
<circle cx="150" cy="96" r="2" fill="black"/>
<circle cx="228" cy="143" r="2" fill="black"/>
<path fill-rule="evenodd" clip-rule="evenodd" d="M143.015 98.4C109.045 98.4 81.401 126.037 81.401 160C81.401 193.963 109.045 221.6 143.015 221.6C170.04 221.6 193.042 204.069 201.293 179.8L205.557 181.003C196.755 207.163 172.102 226 143.015 226C106.569 226 77 196.438 77 160C77 123.562 106.569 94 143.015 94C144.637 94 144.638 98.4 143.015 98.4Z" fill="black"/>
<path fill-rule="evenodd" clip-rule="evenodd" d="M237.603 143.558C242.211 147.959 244.745 153.811 244.739 160.038C244.732 166.245 242.2 172.069 237.609 176.437C232.968 180.844 226.809 183.271 220.264 183.271C213.72 183.271 207.561 180.844 202.923 176.44L159.636 135.217C152.686 128.629 143.475 125 133.699 125C128.581 125 127 127 127 131C127 135 129 137 133.699 136.729C140.244 136.729 146.403 139.156 151.041 143.56L194.327 184.783C201.277 191.371 210.488 195 220.264 195C230.084 195 239.297 191.369 246.2 184.784C253.158 178.197 256.993 169.395 256.999 160.002C257.004 150.633 253.186 141.833 246.247 135.223C239.337 128.631 232.968 139.156 237.603 143.558Z" fill="black"/>
<path fill-rule="evenodd" clip-rule="evenodd" d="M97.0003 159.998C97.0005 165.995 100.812 178.162 107.756 184.777C114.666 191.369 123.88 195 133.699 195C143.518 195 152.731 191.369 159.638 184.782L171 174L171.161 173.355C172.37 168.519 167.685 164.296 163 166V166L151.044 176.437C146.403 180.844 140.243 183.271 133.699 183.271C127.155 183.271 120.996 180.844 116.361 176.442C111.753 172.041 109.218 166.188 109.225 159.962C109.229 156.818 106.096 153.924 103 154C99.9831 154.074 97.0002 157.038 97.0003 159.998Z" fill="black"/>
<path fill-rule="evenodd" clip-rule="evenodd" d="M114.675 128.355C108.766 129.396 102.103 137.679 101.175 143.935C100.248 150.192 109.632 151.583 112.239 149.093C114.846 146.602 113.008 142.643 120.479 140.862C125.796 139.594 122.553 126.965 114.675 128.355Z" fill="black"/>
</svg>
